<svg xmlns="http://www.w3.org/2000/svg" width="900" height="1700" viewBox="0 0 900 1700"><defs><style>text{font-family:-apple-system,BlinkMacSystemFont,"PingFang SC","Microsoft YaHei",sans-serif;fill:#24323d}.m{fill:#75848e}.g{fill:#08ad68}.r{fill:#ef5457}.h{font-weight:700}.card{fill:#fff;stroke:#d9e9e1;stroke-width:2}.s{font-size:20px}.n{font-size:26px}.b{font-size:38px}</style></defs><rect width="900" height="1700" fill="#f7fffb"/><rect width="900" height="90" fill="#fff"/><text x="32" y="56" class="g h n">经营看板</text><text x="190" y="56" class="m n">实时　门店诊断　经营周报　成交明细</text><rect x="28" y="116" width="844" height="194" rx="24" class="card"/><text x="56" y="162" class="h b">每日经营洞察</text><text x="56" y="211" class="m n">程××圈经，昨日佣金环比变化 2×.×%，建议关注团队转化。</text><text x="56" y="258" class="m n">关键指标：业绩 3.××× 万 · 租赁 1.××× 万 · 排名 ×/10</text><rect x="28" y="340" width="844" height="1290" rx="28" fill="#fff" stroke="#d9e9e1" stroke-width="2"/><rect x="52" y="385" width="8" height="42" rx="4" class="g"/><text x="78" y="418" class="h b">红黑榜</text><text x="52" y="480" class="m n">综合　　二手　　新房　　租赁</text><rect x="52" y="520" width="796" height="66" rx="14" fill="#edfff6"/><text x="80" y="563" class="g h n">门店与人员表现对标</text>
<g transform="translate(52 620)"><rect width="382" height="410" rx="22" class="card"/><text x="120" y="60" class="g h b">门店榜</text><text x="36" y="135" class="n">🥇 付××　1.××× 万</text><text x="36" y="205" class="n">🥈 崔××　8×××</text><text x="36" y="275" class="n">🥉 陈×　　6×××</text><text x="36" y="345" class="m s">排名与金额均已匿名化</text></g><g transform="translate(466 620)"><rect width="382" height="410" rx="22" class="card"/><text x="105" y="60" class="r h b">关注名单</text><text x="36" y="135" class="n">■ 官××　0　双瓜</text><text x="36" y="205" class="n">■ 冯×　　0　双瓜</text><text x="36" y="275" class="n">■ 侯×　　0　双瓜</text><text x="36" y="345" class="m s">用于识别需要支持的对象</text></g>
<rect x="52" y="1065" width="796" height="430" rx="22" class="card"/><text x="334" y="1125" class="g h b">销售标杆</text><line x1="88" y1="1160" x2="812" y2="1160" stroke="#dce8e2"/><text x="96" y="1230" class="n">1. 享贤五路店　张××　1×.×× 万</text><text x="96" y="1315" class="n">2. 海岸家滨海西店　赵×　1×.×× 万</text><text x="96" y="1400" class="n">3. 鼎盛澜海东店　王×　1×.×× 万</text><text x="96" y="1460" class="m s">展示结构与经营逻辑，敏感信息已处理</text><rect y="1610" width="900" height="90" fill="#fff"/><text x="75" y="1662" class="g h s">▣ 经营看板</text><text x="280" y="1662" class="m s">◉ 实时</text><text x="455" y="1662" class="m s">￥ 门店利润</text><text x="650" y="1662" class="m s">⌘ 人员检测</text></svg>
